<svg id="visual" viewBox="0 0 900 600" width="900" height="600" xmlns="http://www.w3.org/2000/svg" xmlns:xlink="http://www.w3.org/1999/xlink" version="1.1"><g stroke-width="1" stroke-linejoin="bevel"><path d="M478 291L420 333L489 362Z" fill="#081a28" stroke="#081a28"></path><path d="M420 333L394 396L489 362Z" fill="#205a7a" stroke="#205a7a"></path><path d="M489 362L585 305L478 291Z" fill="#1d4e6b" stroke="#1d4e6b"></path><path d="M585 305L515 214L478 291Z" fill="#112e42" stroke="#112e42"></path><path d="M478 291L373 224L420 333Z" fill="#297ea6" stroke="#297ea6"></path><path d="M515 214L373 224L478 291Z" fill="#081a28" stroke="#081a28"></path><path d="M420 333L332 420L394 396Z" fill="#00101c" stroke="#00101c"></path><path d="M394 396L497 469L489 362Z" fill="#277297" stroke="#277297"></path><path d="M489 362L599 437L585 305Z" fill="#112e42" stroke="#112e42"></path><path d="M268 274L332 420L420 333Z" fill="#277297" stroke="#277297"></path><path d="M394 396L387 475L497 469Z" fill="#15384f" stroke="#15384f"></path><path d="M585 305L596 239L515 214Z" fill="#081a28" stroke="#081a28"></path><path d="M332 420L387 475L394 396Z" fill="#19435d" stroke="#19435d"></path><path d="M497 469L599 437L489 362Z" fill="#277297" stroke="#277297"></path><path d="M585 305L697 290L596 239Z" fill="#0c2435" stroke="#0c2435"></path><path d="M403 110L314 221L373 224Z" fill="#00101c" stroke="#00101c"></path><path d="M373 224L268 274L420 333Z" fill="#205a7a" stroke="#205a7a"></path><path d="M497 469L581 484L599 437Z" fill="#1d4e6b" stroke="#1d4e6b"></path><path d="M490 600L581 484L497 469Z" fill="#297ea6" stroke="#297ea6"></path><path d="M314 221L268 274L373 224Z" fill="#297ea6" stroke="#297ea6"></path><path d="M674 466L677 362L599 437Z" fill="#15384f" stroke="#15384f"></path><path d="M599 437L677 362L585 305Z" fill="#205a7a" stroke="#205a7a"></path><path d="M533 61L403 110L515 214Z" fill="#205a7a" stroke="#205a7a"></path><path d="M515 214L403 110L373 224Z" fill="#00101c" stroke="#00101c"></path><path d="M197 177L181 279L268 274Z" fill="#0c2435" stroke="#0c2435"></path><path d="M677 362L697 290L585 305Z" fill="#00101c" stroke="#00101c"></path><path d="M606 88L533 61L515 214Z" fill="#081a28" stroke="#081a28"></path><path d="M581 484L674 466L599 437Z" fill="#297ea6" stroke="#297ea6"></path><path d="M824 386L809 266L697 290Z" fill="#00101c" stroke="#00101c"></path><path d="M405 600L497 469L387 475Z" fill="#205a7a" stroke="#205a7a"></path><path d="M405 600L490 600L497 469Z" fill="#205a7a" stroke="#205a7a"></path><path d="M581 484L684 600L674 466Z" fill="#112e42" stroke="#112e42"></path><path d="M261 524L387 475L332 420Z" fill="#081a28" stroke="#081a28"></path><path d="M317 600L405 600L387 475Z" fill="#15384f" stroke="#15384f"></path><path d="M606 88L515 214L596 239Z" fill="#00101c" stroke="#00101c"></path><path d="M174 363L261 524L332 420Z" fill="#205a7a" stroke="#205a7a"></path><path d="M725 183L606 88L596 239Z" fill="#081a28" stroke="#081a28"></path><path d="M365 0L298 98L403 110Z" fill="#19435d" stroke="#19435d"></path><path d="M403 110L298 98L314 221Z" fill="#0c2435" stroke="#0c2435"></path><path d="M197 177L268 274L314 221Z" fill="#081a28" stroke="#081a28"></path><path d="M268 274L174 363L332 420Z" fill="#297ea6" stroke="#297ea6"></path><path d="M181 279L174 363L268 274Z" fill="#081a28" stroke="#081a28"></path><path d="M490 600L579 600L581 484Z" fill="#15384f" stroke="#15384f"></path><path d="M697 290L725 183L596 239Z" fill="#0c2435" stroke="#0c2435"></path><path d="M807 238L725 183L697 290Z" fill="#0c2435" stroke="#0c2435"></path><path d="M298 98L197 177L314 221Z" fill="#112e42" stroke="#112e42"></path><path d="M261 524L317 600L387 475Z" fill="#246688" stroke="#246688"></path><path d="M565 0L473 0L533 61Z" fill="#297ea6" stroke="#297ea6"></path><path d="M533 61L473 0L403 110Z" fill="#00101c" stroke="#00101c"></path><path d="M174 363L190 539L261 524Z" fill="#246688" stroke="#246688"></path><path d="M261 524L202 600L317 600Z" fill="#246688" stroke="#246688"></path><path d="M473 0L365 0L403 110Z" fill="#277297" stroke="#277297"></path><path d="M298 98L184 113L197 177Z" fill="#0c2435" stroke="#0c2435"></path><path d="M606 88L565 0L533 61Z" fill="#297ea6" stroke="#297ea6"></path><path d="M698 0L565 0L606 88Z" fill="#246688" stroke="#246688"></path><path d="M108 320L122 395L174 363Z" fill="#297ea6" stroke="#297ea6"></path><path d="M174 363L122 395L190 539Z" fill="#112e42" stroke="#112e42"></path><path d="M108 320L174 363L181 279Z" fill="#19435d" stroke="#19435d"></path><path d="M579 600L684 600L581 484Z" fill="#1d4e6b" stroke="#1d4e6b"></path><path d="M824 386L697 290L677 362Z" fill="#297ea6" stroke="#297ea6"></path><path d="M180 0L184 113L298 98Z" fill="#081a28" stroke="#081a28"></path><path d="M117 230L108 320L181 279Z" fill="#15384f" stroke="#15384f"></path><path d="M824 386L677 362L674 466Z" fill="#0c2435" stroke="#0c2435"></path><path d="M725 183L704 69L606 88Z" fill="#297ea6" stroke="#297ea6"></path><path d="M117 230L181 279L197 177Z" fill="#205a7a" stroke="#205a7a"></path><path d="M768 122L704 69L725 183Z" fill="#297ea6" stroke="#297ea6"></path><path d="M809 266L807 238L697 290Z" fill="#205a7a" stroke="#205a7a"></path><path d="M126 126L117 230L197 177Z" fill="#246688" stroke="#246688"></path><path d="M819 493L824 386L674 466Z" fill="#0c2435" stroke="#0c2435"></path><path d="M809 266L900 309L807 238Z" fill="#0c2435" stroke="#0c2435"></path><path d="M807 238L768 122L725 183Z" fill="#1d4e6b" stroke="#1d4e6b"></path><path d="M365 0L293 0L298 98Z" fill="#15384f" stroke="#15384f"></path><path d="M128 534L202 600L190 539Z" fill="#112e42" stroke="#112e42"></path><path d="M190 539L202 600L261 524Z" fill="#297ea6" stroke="#297ea6"></path><path d="M0 514L128 534L122 395Z" fill="#0c2435" stroke="#0c2435"></path><path d="M122 395L128 534L190 539Z" fill="#15384f" stroke="#15384f"></path><path d="M684 600L819 493L674 466Z" fill="#0c2435" stroke="#0c2435"></path><path d="M117 230L0 336L108 320Z" fill="#297ea6" stroke="#297ea6"></path><path d="M184 113L126 126L197 177Z" fill="#246688" stroke="#246688"></path><path d="M180 0L126 126L184 113Z" fill="#205a7a" stroke="#205a7a"></path><path d="M839 0L698 0L704 69Z" fill="#1d4e6b" stroke="#1d4e6b"></path><path d="M704 69L698 0L606 88Z" fill="#0c2435" stroke="#0c2435"></path><path d="M684 600L798 600L819 493Z" fill="#205a7a" stroke="#205a7a"></path><path d="M293 0L180 0L298 98Z" fill="#112e42" stroke="#112e42"></path><path d="M824 386L900 309L809 266Z" fill="#00101c" stroke="#00101c"></path><path d="M807 238L900 182L768 122Z" fill="#00101c" stroke="#00101c"></path><path d="M768 122L839 0L704 69Z" fill="#277297" stroke="#277297"></path><path d="M900 413L900 309L824 386Z" fill="#19435d" stroke="#19435d"></path><path d="M900 413L824 386L819 493Z" fill="#297ea6" stroke="#297ea6"></path><path d="M900 527L900 413L819 493Z" fill="#00101c" stroke="#00101c"></path><path d="M108 320L0 387L122 395Z" fill="#15384f" stroke="#15384f"></path><path d="M0 161L0 336L117 230Z" fill="#205a7a" stroke="#205a7a"></path><path d="M0 161L117 230L126 126Z" fill="#00101c" stroke="#00101c"></path><path d="M900 309L900 182L807 238Z" fill="#297ea6" stroke="#297ea6"></path><path d="M0 336L0 387L108 320Z" fill="#19435d" stroke="#19435d"></path><path d="M798 600L900 527L819 493Z" fill="#246688" stroke="#246688"></path><path d="M900 182L900 132L768 122Z" fill="#0c2435" stroke="#0c2435"></path><path d="M0 514L61 600L128 534Z" fill="#00101c" stroke="#00101c"></path><path d="M128 534L61 600L202 600Z" fill="#246688" stroke="#246688"></path><path d="M0 120L0 161L126 126Z" fill="#0c2435" stroke="#0c2435"></path><path d="M0 387L0 514L122 395Z" fill="#246688" stroke="#246688"></path><path d="M900 132L839 0L768 122Z" fill="#277297" stroke="#277297"></path><path d="M180 0L83 0L126 126Z" fill="#205a7a" stroke="#205a7a"></path><path d="M83 0L0 120L126 126Z" fill="#277297" stroke="#277297"></path><path d="M798 600L900 600L900 527Z" fill="#246688" stroke="#246688"></path><path d="M0 514L0 600L61 600Z" fill="#00101c" stroke="#00101c"></path><path d="M900 132L900 0L839 0Z" fill="#15384f" stroke="#15384f"></path><path d="M83 0L0 0L0 120Z" fill="#1d4e6b" stroke="#1d4e6b"></path></g></svg>